<mxfile host="app.diagrams.net" agent="Mozilla/5.0 (Windows NT 10.0; Win64; x64) AppleWebKit/537.36 (KHTML, like Gecko) Chrome/132.0.0.0 Safari/537.36" version="26.0.7">
  <diagram id="C5RBs43oDa-KdzZeNtuy" name="Page-1">
    <mxGraphModel dx="1842" dy="739" grid="1" gridSize="10" guides="1" tooltips="1" connect="1" arrows="1" fold="1" page="1" pageScale="1" pageWidth="827" pageHeight="1169" math="0" shadow="0">
      <root>
        <mxCell id="WIyWlLk6GJQsqaUBKTNV-0" />
        <mxCell id="WIyWlLk6GJQsqaUBKTNV-1" parent="WIyWlLk6GJQsqaUBKTNV-0" />
        <mxCell id="ZlSIsBOOe67qpXMuT2qI-0" value="" style="edgeStyle=orthogonalEdgeStyle;rounded=0;orthogonalLoop=1;jettySize=auto;html=1;" edge="1" parent="WIyWlLk6GJQsqaUBKTNV-1" source="ZlSIsBOOe67qpXMuT2qI-1" target="ZlSIsBOOe67qpXMuT2qI-3">
          <mxGeometry relative="1" as="geometry" />
        </mxCell>
        <mxCell id="ZlSIsBOOe67qpXMuT2qI-1" value="Start" style="ellipse;whiteSpace=wrap;html=1;" vertex="1" parent="WIyWlLk6GJQsqaUBKTNV-1">
          <mxGeometry x="225.93" y="95" width="120" height="80" as="geometry" />
        </mxCell>
        <mxCell id="ZlSIsBOOe67qpXMuT2qI-2" value="" style="edgeStyle=orthogonalEdgeStyle;rounded=0;orthogonalLoop=1;jettySize=auto;html=1;" edge="1" parent="WIyWlLk6GJQsqaUBKTNV-1" source="ZlSIsBOOe67qpXMuT2qI-3" target="ZlSIsBOOe67qpXMuT2qI-5">
          <mxGeometry relative="1" as="geometry" />
        </mxCell>
        <mxCell id="ZlSIsBOOe67qpXMuT2qI-3" value="Input score" style="shape=parallelogram;perimeter=parallelogramPerimeter;whiteSpace=wrap;html=1;fixedSize=1;" vertex="1" parent="WIyWlLk6GJQsqaUBKTNV-1">
          <mxGeometry x="225.93" y="218" width="120" height="60" as="geometry" />
        </mxCell>
        <mxCell id="ZlSIsBOOe67qpXMuT2qI-4" value="" style="edgeStyle=orthogonalEdgeStyle;rounded=0;orthogonalLoop=1;jettySize=auto;html=1;" edge="1" parent="WIyWlLk6GJQsqaUBKTNV-1" source="ZlSIsBOOe67qpXMuT2qI-5" target="ZlSIsBOOe67qpXMuT2qI-9">
          <mxGeometry relative="1" as="geometry" />
        </mxCell>
        <mxCell id="ZlSIsBOOe67qpXMuT2qI-36" style="edgeStyle=orthogonalEdgeStyle;rounded=0;orthogonalLoop=1;jettySize=auto;html=1;entryX=0;entryY=0.5;entryDx=0;entryDy=0;" edge="1" parent="WIyWlLk6GJQsqaUBKTNV-1" source="ZlSIsBOOe67qpXMuT2qI-5" target="ZlSIsBOOe67qpXMuT2qI-28">
          <mxGeometry relative="1" as="geometry">
            <Array as="points">
              <mxPoint x="114" y="358" />
              <mxPoint x="114" y="810" />
            </Array>
          </mxGeometry>
        </mxCell>
        <mxCell id="ZlSIsBOOe67qpXMuT2qI-5" value="score = -1" style="rhombus;whiteSpace=wrap;html=1;" vertex="1" parent="WIyWlLk6GJQsqaUBKTNV-1">
          <mxGeometry x="213.43" y="320" width="145" height="80" as="geometry" />
        </mxCell>
        <mxCell id="ZlSIsBOOe67qpXMuT2qI-6" value="" style="edgeStyle=orthogonalEdgeStyle;rounded=0;orthogonalLoop=1;jettySize=auto;html=1;" edge="1" parent="WIyWlLk6GJQsqaUBKTNV-1" source="ZlSIsBOOe67qpXMuT2qI-9" target="ZlSIsBOOe67qpXMuT2qI-11">
          <mxGeometry relative="1" as="geometry" />
        </mxCell>
        <mxCell id="ZlSIsBOOe67qpXMuT2qI-7" value="" style="edgeStyle=orthogonalEdgeStyle;rounded=0;orthogonalLoop=1;jettySize=auto;html=1;" edge="1" parent="WIyWlLk6GJQsqaUBKTNV-1" source="ZlSIsBOOe67qpXMuT2qI-9" target="ZlSIsBOOe67qpXMuT2qI-13">
          <mxGeometry relative="1" as="geometry" />
        </mxCell>
        <mxCell id="ZlSIsBOOe67qpXMuT2qI-9" value="score &amp;lt; 0 or score &amp;gt; 100" style="rhombus;whiteSpace=wrap;html=1;" vertex="1" parent="WIyWlLk6GJQsqaUBKTNV-1">
          <mxGeometry x="180.93" y="418" width="210" height="110" as="geometry" />
        </mxCell>
        <mxCell id="ZlSIsBOOe67qpXMuT2qI-45" style="edgeStyle=orthogonalEdgeStyle;rounded=0;orthogonalLoop=1;jettySize=auto;html=1;" edge="1" parent="WIyWlLk6GJQsqaUBKTNV-1" source="ZlSIsBOOe67qpXMuT2qI-11">
          <mxGeometry relative="1" as="geometry">
            <mxPoint x="714" y="473" as="targetPoint" />
          </mxGeometry>
        </mxCell>
        <mxCell id="ZlSIsBOOe67qpXMuT2qI-11" value="Print &quot;Invalid score! Please&amp;nbsp;&lt;div&gt;enter a score between 0-100.&quot;&lt;/div&gt;" style="whiteSpace=wrap;html=1;" vertex="1" parent="WIyWlLk6GJQsqaUBKTNV-1">
          <mxGeometry x="478" y="437" width="176" height="72" as="geometry" />
        </mxCell>
        <mxCell id="ZlSIsBOOe67qpXMuT2qI-12" style="edgeStyle=orthogonalEdgeStyle;rounded=0;orthogonalLoop=1;jettySize=auto;html=1;exitX=1;exitY=0.5;exitDx=0;exitDy=0;entryX=1;entryY=0.5;entryDx=0;entryDy=0;" edge="1" parent="WIyWlLk6GJQsqaUBKTNV-1" source="ZlSIsBOOe67qpXMuT2qI-24" target="ZlSIsBOOe67qpXMuT2qI-5">
          <mxGeometry relative="1" as="geometry">
            <Array as="points">
              <mxPoint x="346" y="715" />
              <mxPoint x="714" y="715" />
              <mxPoint x="714" y="358" />
              <mxPoint x="358" y="358" />
            </Array>
          </mxGeometry>
        </mxCell>
        <mxCell id="ZlSIsBOOe67qpXMuT2qI-25" value="" style="edgeStyle=orthogonalEdgeStyle;rounded=0;orthogonalLoop=1;jettySize=auto;html=1;" edge="1" parent="WIyWlLk6GJQsqaUBKTNV-1" source="ZlSIsBOOe67qpXMuT2qI-13" target="ZlSIsBOOe67qpXMuT2qI-24">
          <mxGeometry relative="1" as="geometry" />
        </mxCell>
        <mxCell id="ZlSIsBOOe67qpXMuT2qI-13" value="total += score" style="whiteSpace=wrap;html=1;" vertex="1" parent="WIyWlLk6GJQsqaUBKTNV-1">
          <mxGeometry x="207.18" y="555" width="157.5" height="60" as="geometry" />
        </mxCell>
        <mxCell id="ZlSIsBOOe67qpXMuT2qI-16" value="True" style="text;html=1;align=center;verticalAlign=middle;whiteSpace=wrap;rounded=0;" vertex="1" parent="WIyWlLk6GJQsqaUBKTNV-1">
          <mxGeometry x="152.18" y="327" width="60" height="30" as="geometry" />
        </mxCell>
        <mxCell id="ZlSIsBOOe67qpXMuT2qI-17" value="False" style="text;html=1;align=center;verticalAlign=middle;whiteSpace=wrap;rounded=0;" vertex="1" parent="WIyWlLk6GJQsqaUBKTNV-1">
          <mxGeometry x="298.43" y="394" width="60" height="30" as="geometry" />
        </mxCell>
        <mxCell id="ZlSIsBOOe67qpXMuT2qI-18" value="True" style="text;html=1;align=center;verticalAlign=middle;whiteSpace=wrap;rounded=0;" vertex="1" parent="WIyWlLk6GJQsqaUBKTNV-1">
          <mxGeometry x="400.68" y="446" width="60" height="30" as="geometry" />
        </mxCell>
        <mxCell id="ZlSIsBOOe67qpXMuT2qI-19" value="False" style="text;html=1;align=center;verticalAlign=middle;whiteSpace=wrap;rounded=0;" vertex="1" parent="WIyWlLk6GJQsqaUBKTNV-1">
          <mxGeometry x="213.43" y="525" width="60" height="30" as="geometry" />
        </mxCell>
        <mxCell id="ZlSIsBOOe67qpXMuT2qI-24" value="count++" style="whiteSpace=wrap;html=1;" vertex="1" parent="WIyWlLk6GJQsqaUBKTNV-1">
          <mxGeometry x="225.93" y="668" width="120" height="60" as="geometry" />
        </mxCell>
        <mxCell id="ZlSIsBOOe67qpXMuT2qI-30" value="" style="edgeStyle=orthogonalEdgeStyle;rounded=0;orthogonalLoop=1;jettySize=auto;html=1;" edge="1" parent="WIyWlLk6GJQsqaUBKTNV-1" source="ZlSIsBOOe67qpXMuT2qI-28" target="ZlSIsBOOe67qpXMuT2qI-29">
          <mxGeometry relative="1" as="geometry" />
        </mxCell>
        <mxCell id="ZlSIsBOOe67qpXMuT2qI-33" value="" style="edgeStyle=orthogonalEdgeStyle;rounded=0;orthogonalLoop=1;jettySize=auto;html=1;" edge="1" parent="WIyWlLk6GJQsqaUBKTNV-1" source="ZlSIsBOOe67qpXMuT2qI-28" target="ZlSIsBOOe67qpXMuT2qI-32">
          <mxGeometry relative="1" as="geometry" />
        </mxCell>
        <mxCell id="ZlSIsBOOe67qpXMuT2qI-28" value="count &amp;gt; 0" style="rhombus;whiteSpace=wrap;html=1;" vertex="1" parent="WIyWlLk6GJQsqaUBKTNV-1">
          <mxGeometry x="245.93" y="770" width="80" height="80" as="geometry" />
        </mxCell>
        <mxCell id="ZlSIsBOOe67qpXMuT2qI-42" style="edgeStyle=orthogonalEdgeStyle;rounded=0;orthogonalLoop=1;jettySize=auto;html=1;" edge="1" parent="WIyWlLk6GJQsqaUBKTNV-1" source="ZlSIsBOOe67qpXMuT2qI-29" target="ZlSIsBOOe67qpXMuT2qI-34">
          <mxGeometry relative="1" as="geometry" />
        </mxCell>
        <mxCell id="ZlSIsBOOe67qpXMuT2qI-29" value="average = total / count" style="whiteSpace=wrap;html=1;" vertex="1" parent="WIyWlLk6GJQsqaUBKTNV-1">
          <mxGeometry x="494.065" y="780" width="143.87" height="60" as="geometry" />
        </mxCell>
        <mxCell id="ZlSIsBOOe67qpXMuT2qI-43" style="edgeStyle=orthogonalEdgeStyle;rounded=0;orthogonalLoop=1;jettySize=auto;html=1;entryX=0.5;entryY=0;entryDx=0;entryDy=0;" edge="1" parent="WIyWlLk6GJQsqaUBKTNV-1" source="ZlSIsBOOe67qpXMuT2qI-32" target="ZlSIsBOOe67qpXMuT2qI-37">
          <mxGeometry relative="1" as="geometry" />
        </mxCell>
        <mxCell id="ZlSIsBOOe67qpXMuT2qI-32" value="Print &quot;There is no correct score.&quot;" style="whiteSpace=wrap;html=1;" vertex="1" parent="WIyWlLk6GJQsqaUBKTNV-1">
          <mxGeometry x="177.18" y="893" width="217.5" height="60" as="geometry" />
        </mxCell>
        <mxCell id="ZlSIsBOOe67qpXMuT2qI-38" value="" style="edgeStyle=orthogonalEdgeStyle;rounded=0;orthogonalLoop=1;jettySize=auto;html=1;" edge="1" parent="WIyWlLk6GJQsqaUBKTNV-1" source="ZlSIsBOOe67qpXMuT2qI-34" target="ZlSIsBOOe67qpXMuT2qI-37">
          <mxGeometry relative="1" as="geometry">
            <Array as="points">
              <mxPoint x="566" y="1035" />
            </Array>
          </mxGeometry>
        </mxCell>
        <mxCell id="ZlSIsBOOe67qpXMuT2qI-34" value="แสดงค่า average" style="whiteSpace=wrap;html=1;" vertex="1" parent="WIyWlLk6GJQsqaUBKTNV-1">
          <mxGeometry x="506" y="893" width="120" height="60" as="geometry" />
        </mxCell>
        <mxCell id="ZlSIsBOOe67qpXMuT2qI-37" value="End" style="ellipse;whiteSpace=wrap;html=1;" vertex="1" parent="WIyWlLk6GJQsqaUBKTNV-1">
          <mxGeometry x="225.93" y="995" width="120" height="80" as="geometry" />
        </mxCell>
        <mxCell id="ZlSIsBOOe67qpXMuT2qI-40" value="True" style="text;html=1;align=center;verticalAlign=middle;whiteSpace=wrap;rounded=0;" vertex="1" parent="WIyWlLk6GJQsqaUBKTNV-1">
          <mxGeometry x="364.68" y="770" width="60" height="30" as="geometry" />
        </mxCell>
        <mxCell id="ZlSIsBOOe67qpXMuT2qI-41" value="False" style="text;html=1;align=center;verticalAlign=middle;whiteSpace=wrap;rounded=0;" vertex="1" parent="WIyWlLk6GJQsqaUBKTNV-1">
          <mxGeometry x="298.43" y="850" width="60" height="30" as="geometry" />
        </mxCell>
      </root>
    </mxGraphModel>
  </diagram>
</mxfile>
